<svg width="86" height="86" viewBox="0 0 86 86" fill="none" xmlns="http://www.w3.org/2000/svg">
<path d="M68.0833 22.7279C62.1708 15.4215 53.1312 10.75 43 10.75C25.1888 10.75 10.75 25.1888 10.75 43C10.75 49.6295 12.7505 55.7921 16.1807 60.9167M75.25 43C75.25 60.8113 60.8113 75.25 43 75.25C39.2769 75.25 35.701 74.619 32.3737 73.4583M43 57.3333H46.5833C48.9723 57.3333 53.75 55.9 53.75 50.1667C53.75 44.4333 48.9723 43 46.5833 43H39.4167C37.0277 43 32.25 41.5667 32.25 35.8333C32.25 30.1 37.0277 28.6667 39.4167 28.6667H43M43 57.3333H32.25M43 57.3333V64.5M43 28.6667H53.75M43 28.6667V21.5" stroke="#D1D5DB" stroke-width="5" stroke-linecap="round" stroke-linejoin="round"/>
</svg>
