<svg width="86" height="86" viewBox="0 0 86 86" fill="none" xmlns="http://www.w3.org/2000/svg">
<path d="M14.7742 36.2258C14.7742 34.3552 13.2577 32.8387 11.3871 32.8387C9.51647 32.8387 8 34.3552 8 36.2258H14.7742ZM38.4839 78C40.3545 78 41.871 76.4835 41.871 74.6129C41.871 72.7423 40.3545 71.2258 38.4839 71.2258V78ZM8 36.2258C8 38.0964 9.51647 39.6129 11.3871 39.6129C13.2577 39.6129 14.7742 38.0964 14.7742 36.2258H8ZM38.4839 14.7742C40.3545 14.7742 41.871 13.2577 41.871 11.3871C41.871 9.51647 40.3545 8 38.4839 8V14.7742ZM11.3871 32.8387C9.51647 32.8387 8 34.3552 8 36.2258C8 38.0964 9.51647 39.6129 11.3871 39.6129V32.8387ZM38.4839 39.6129C40.3545 39.6129 41.871 38.0964 41.871 36.2258C41.871 34.3552 40.3545 32.8387 38.4839 32.8387V39.6129ZM35.0968 36.2258C35.0968 38.0964 36.6133 39.6129 38.4839 39.6129C40.3545 39.6129 41.871 38.0964 41.871 36.2258H35.0968ZM41.871 11.3871C41.871 9.51647 40.3545 8 38.4839 8C36.6133 8 35.0968 9.51647 35.0968 11.3871H41.871ZM41.871 36.2258C41.871 34.3552 40.3545 32.8387 38.4839 32.8387C36.6133 32.8387 35.0968 34.3552 35.0968 36.2258H41.871ZM35.0968 52.0323C35.0968 53.9028 36.6133 55.4194 38.4839 55.4194C40.3545 55.4194 41.871 53.9028 41.871 52.0323H35.0968ZM38.4839 71.2258C36.6133 71.2258 35.0968 72.7423 35.0968 74.6129C35.0968 76.4835 36.6133 78 38.4839 78V71.2258ZM78 52.0323C78 50.1617 76.4835 48.6452 74.6129 48.6452C72.7423 48.6452 71.2258 50.1617 71.2258 52.0323H78ZM35.0968 74.6129C35.0968 76.4835 36.6133 78 38.4839 78C40.3545 78 41.871 76.4835 41.871 74.6129H35.0968ZM41.871 52.0323C41.871 50.1617 40.3545 48.6452 38.4839 48.6452C36.6133 48.6452 35.0968 50.1617 35.0968 52.0323H41.871ZM38.4839 8C36.6133 8 35.0968 9.51647 35.0968 11.3871C35.0968 13.2577 36.6133 14.7742 38.4839 14.7742V8ZM71.2258 52.0323C71.2258 53.9028 72.7423 55.4194 74.6129 55.4194C76.4835 55.4194 78 53.9028 78 52.0323H71.2258ZM74.6129 55.4194C76.4835 55.4194 78 53.9028 78 52.0323C78 50.1617 76.4835 48.6452 74.6129 48.6452V55.4194ZM38.4839 48.6452C36.6133 48.6452 35.0968 50.1617 35.0968 52.0323C35.0968 53.9028 36.6133 55.4194 38.4839 55.4194V48.6452ZM8 36.2258V56.5484H14.7742V36.2258H8ZM8 56.5484C8 68.396 17.6042 78 29.4516 78V71.2258C21.3455 71.2258 14.7742 64.6544 14.7742 56.5484H8ZM29.4516 78H38.4839V71.2258H29.4516V78ZM14.7742 36.2258V29.4516H8V36.2258H14.7742ZM14.7742 29.4516C14.7742 21.3455 21.3455 14.7742 29.4516 14.7742V8C17.6042 8 8 17.6042 8 29.4516H14.7742ZM29.4516 14.7742H38.4839V8H29.4516V14.7742ZM11.3871 39.6129H38.4839V32.8387H11.3871V39.6129ZM41.871 36.2258V11.3871H35.0968V36.2258H41.871ZM35.0968 36.2258V52.0323H41.871V36.2258H35.0968ZM38.4839 78H56.5484V71.2258H38.4839V78ZM56.5484 78C68.396 78 78 68.396 78 56.5484H71.2258C71.2258 64.6544 64.6544 71.2258 56.5484 71.2258V78ZM78 56.5484V52.0323H71.2258V56.5484H78ZM41.871 74.6129V52.0323H35.0968V74.6129H41.871ZM38.4839 14.7742H56.5484V8H38.4839V14.7742ZM56.5484 14.7742C64.6544 14.7742 71.2258 21.3455 71.2258 29.4516H78C78 17.6042 68.396 8 56.5484 8V14.7742ZM71.2258 29.4516V52.0323H78V29.4516H71.2258ZM74.6129 48.6452H38.4839V55.4194H74.6129V48.6452Z" fill="#D1D5DB"/>
</svg>
