<svg width="253" height="72" viewBox="0 0 253 72" fill="none" xmlns="http://www.w3.org/2000/svg">
<path d="M2.96307 21.9091H9.41193L18.0483 42.9886H18.3892L27.0256 21.9091H33.4744V51H28.4176V31.0142H28.1477L20.108 50.9148H16.3295L8.28977 30.9716H8.01989V51H2.96307V21.9091ZM39.2131 51V21.9091H58.1335V26.3267H44.483V34.2244H57.1534V38.642H44.483V46.5824H58.2472V51H39.2131ZM63.5099 51V21.9091H82.4304V26.3267H68.7798V34.2244H81.4503V38.642H68.7798V46.5824H82.544V51H63.5099ZM86.5284 26.3267V21.9091H109.739V26.3267H100.747V51H95.5199V26.3267H86.5284ZM113.673 51V47.7188L128.588 26.3267H113.588V21.9091H135.122V25.1903L120.222 46.5824H135.207V51H113.673ZM140.307 51V21.9091H158.943V26.3267H145.577V34.2244H157.665V38.642H145.577V51H140.307ZM163.744 51V21.9091H169.014V46.5824H181.827V51H163.744ZM211.262 36.4545C211.262 39.589 210.675 42.2737 209.501 44.5085C208.336 46.7339 206.745 48.4384 204.728 49.6222C202.72 50.8059 200.443 51.3977 197.896 51.3977C195.348 51.3977 193.066 50.8059 191.049 49.6222C189.041 48.429 187.451 46.7197 186.276 44.4943C185.112 42.2595 184.529 39.5795 184.529 36.4545C184.529 33.3201 185.112 30.6402 186.276 28.4148C187.451 26.1799 189.041 24.4706 191.049 23.2869C193.066 22.1032 195.348 21.5114 197.896 21.5114C200.443 21.5114 202.72 22.1032 204.728 23.2869C206.745 24.4706 208.336 26.1799 209.501 28.4148C210.675 30.6402 211.262 33.3201 211.262 36.4545ZM205.964 36.4545C205.964 34.2481 205.618 32.3873 204.927 30.8722C204.245 29.3475 203.298 28.197 202.086 27.4205C200.874 26.6345 199.477 26.2415 197.896 26.2415C196.314 26.2415 194.917 26.6345 193.705 27.4205C192.493 28.197 191.541 29.3475 190.85 30.8722C190.168 32.3873 189.827 34.2481 189.827 36.4545C189.827 38.661 190.168 40.5265 190.85 42.0511C191.541 43.5663 192.493 44.7169 193.705 45.5028C194.917 46.2794 196.314 46.6676 197.896 46.6676C199.477 46.6676 200.874 46.2794 202.086 45.5028C203.298 44.7169 204.245 43.5663 204.927 42.0511C205.618 40.5265 205.964 38.661 205.964 36.4545ZM221.624 51L213.414 21.9091H219.082L224.323 43.2869H224.593L230.19 21.9091H235.346L240.957 43.3011H241.212L246.454 21.9091H252.121L243.911 51H238.712L232.888 30.5881H232.661L226.823 51H221.624Z" fill="white"/>
<ellipse cx="198" cy="36.5" rx="6" ry="7.5" fill="white"/>
</svg>
