<svg width="86" height="86" viewBox="0 0 86 86" fill="none" xmlns="http://www.w3.org/2000/svg">
<path d="M78.8334 28.6665H71.6667M71.6667 28.6665H68.0834C60.9167 21.5062 50.1667 14.3324 43 21.4998M71.6667 28.6665V57.333M43 21.4998L32.2484 32.2556C31.9641 32.5401 31.8219 32.6823 31.7075 32.8083C29.2221 35.5427 29.2231 39.7184 31.7099 42.4517C31.8244 42.5775 31.9669 42.7198 32.2511 43.0039C32.5355 43.2881 32.6777 43.4303 32.8036 43.5447C35.5375 46.029 39.712 46.0286 42.445 43.5432C42.5707 43.4289 42.713 43.2867 42.9972 43.0025L46.5819 39.4177M43 21.4998C35.8334 14.3324 25.0834 21.5064 17.9167 28.6667H14.3334M71.6667 57.333V68.083H78.8334M71.6667 57.333H61.5316M14.3334 28.6667H7.16669M14.3334 28.6667V57.333M14.3334 57.333H21.5L22.8687 60.0706C24.7094 63.7518 29.7806 64.209 32.25 60.9163C34.2038 62.8703 35.1808 63.8471 36.2347 64.3696C38.2396 65.3629 40.5938 65.3629 42.5987 64.3696C43.6525 63.8471 44.6297 62.8703 46.5834 60.9163L48.375 62.708C48.6603 62.9932 48.8032 63.1362 48.9294 63.2512C51.6631 65.7359 55.837 65.7359 58.5707 63.2512C58.6968 63.1362 58.8398 62.9932 59.125 62.708C59.4103 62.4227 59.5532 62.2801 59.6679 62.1536C62.1526 59.4203 62.1526 55.246 59.6679 52.5127C59.5532 52.3862 59.4103 52.2436 59.125 51.958L53.75 46.583M14.3334 57.333V68.083H7.16669" stroke="#D1D5DB" stroke-width="7.16667" stroke-linecap="round" stroke-linejoin="round"/>
</svg>
