<svg xmlns="http://www.w3.org/2000/svg" xmlns:xlink="http://www.w3.org/1999/xlink" width="120" zoomAndPan="magnify" viewBox="0 0 90 89.999999" height="120" preserveAspectRatio="xMidYMid meet" version="1.0"><defs><g/><clipPath id="5771fb1a39"><path d="M 62.25 61.492188 L 90 61.492188 L 90 90 L 62.25 90 Z M 62.25 61.492188 " clip-rule="nonzero"/></clipPath></defs><rect x="-9" width="108" fill="#ffffff" y="-9" height="107.999999" fill-opacity="1"/><rect x="-9" width="108" fill="#1b001b" y="-9" height="107.999999" fill-opacity="1"/><g fill="#ffffff" fill-opacity="1"><g transform="translate(-3.765092, 67.653655)"><g><path d="M 72.6875 -74.9375 L 48.835938 -23.105469 L 25.230469 -74.9375 L 7.367188 -74.9375 L 7.367188 0 L 23.855469 0 L 23.855469 -44.710938 L 44.089844 0 L 53.578125 0 L 73.9375 -44.585938 L 73.9375 0 L 90.425781 0 L 90.425781 -74.9375 Z M 72.6875 -74.9375 "/></g></g></g><g clip-path="url(#5771fb1a39)"><path fill="#1b001b" d="M 62.25 61.492188 L 98.0625 61.492188 L 98.0625 97.304688 L 62.25 97.304688 Z M 62.25 61.492188 " fill-opacity="1" fill-rule="nonzero"/></g></svg>