<svg width="251" height="31" viewBox="0 0 251 31" fill="none" xmlns="http://www.w3.org/2000/svg">
<path d="M0.963068 0.90909H7.41193L16.0483 21.9886H16.3892L25.0256 0.90909H31.4744V30H26.4176V10.0142H26.1477L18.108 29.9148H14.3295L6.28977 9.97159H6.01989V30H0.963068V0.90909ZM37.2131 30V0.90909H56.1335V5.3267H42.483V13.2244H55.1534V17.642H42.483V25.5824H56.2472V30H37.2131ZM61.5099 30V0.90909H80.4304V5.3267H66.7798V13.2244H79.4503V17.642H66.7798V25.5824H80.544V30H61.5099ZM84.5284 5.3267V0.90909H107.739V5.3267H98.7472V30H93.5199V5.3267H84.5284ZM111.673 30V26.7188L126.588 5.3267H111.588V0.90909H133.122V4.19034L118.222 25.5824H133.207V30H111.673ZM138.307 30V0.90909H156.943V5.3267H143.577V13.2244H155.665V17.642H143.577V30H138.307ZM161.744 30V0.90909H167.014V25.5824H179.827V30H161.744ZM209.262 15.4545C209.262 18.589 208.675 21.2737 207.501 23.5085C206.336 25.7339 204.745 27.4384 202.728 28.6222C200.72 29.8059 198.443 30.3977 195.896 30.3977C193.348 30.3977 191.066 29.8059 189.049 28.6222C187.041 27.429 185.451 25.7197 184.276 23.4943C183.112 21.2595 182.529 18.5795 182.529 15.4545C182.529 12.3201 183.112 9.64015 184.276 7.41477C185.451 5.17992 187.041 3.47064 189.049 2.28693C191.066 1.10322 193.348 0.511363 195.896 0.511363C198.443 0.511363 200.72 1.10322 202.728 2.28693C204.745 3.47064 206.336 5.17992 207.501 7.41477C208.675 9.64015 209.262 12.3201 209.262 15.4545ZM203.964 15.4545C203.964 13.2481 203.618 11.3873 202.927 9.87216C202.245 8.34754 201.298 7.19697 200.086 6.42045C198.874 5.63447 197.477 5.24148 195.896 5.24148C194.314 5.24148 192.917 5.63447 191.705 6.42045C190.493 7.19697 189.541 8.34754 188.85 9.87216C188.168 11.3873 187.827 13.2481 187.827 15.4545C187.827 17.661 188.168 19.5265 188.85 21.0511C189.541 22.5663 190.493 23.7169 191.705 24.5028C192.917 25.2794 194.314 25.6676 195.896 25.6676C197.477 25.6676 198.874 25.2794 200.086 24.5028C201.298 23.7169 202.245 22.5663 202.927 21.0511C203.618 19.5265 203.964 17.661 203.964 15.4545ZM219.624 30L211.414 0.90909H217.082L222.323 22.2869H222.593L228.19 0.90909H233.346L238.957 22.3011H239.212L244.454 0.90909H250.121L241.911 30H236.712L230.888 9.58807H230.661L224.823 30H219.624Z" fill="#5CC981"/>
</svg>
