<svg width="60" height="60" viewBox="0 0 60 60" fill="none" xmlns="http://www.w3.org/2000/svg">
<g id="quotes_svgrepo.com">
<g id="Group">
<path id="Vector" d="M24.375 20.625C25.5 20.625 26.25 19.875 26.25 18.75C26.25 17.625 25.5 16.875 24.375 16.875C15 16.875 7.5 24.375 7.5 33.75C7.5 39 11.625 43.125 16.875 43.125C22.125 43.125 26.25 39 26.25 33.75C26.25 28.5 22.125 24.375 16.875 24.375C16.3125 24.375 15.5625 24.375 15 24.5625C17.4375 22.125 20.625 20.625 24.375 20.625Z" fill="#989898"/>
<path id="Vector_2" d="M43.125 24.375C42.5625 24.375 41.8125 24.375 41.25 24.5625C43.6875 22.125 46.875 20.625 50.625 20.625C51.75 20.625 52.5 19.875 52.5 18.75C52.5 17.625 51.75 16.875 50.625 16.875C41.25 16.875 33.75 24.375 33.75 33.75C33.75 39 37.875 43.125 43.125 43.125C48.375 43.125 52.5 39 52.5 33.75C52.5 28.5 48.375 24.375 43.125 24.375Z" fill="#989898"/>
</g>
</g>
</svg>
