<svg width="86" height="86" viewBox="0 0 86 86" fill="none" xmlns="http://www.w3.org/2000/svg">
<g clip-path="url(#clip0_19_74)">
<path d="M73.226 48.2952C78.6866 48.2952 83.1143 43.8704 83.1143 38.4097C83.1143 32.9491 78.6865 28.5212 73.226 28.5212C67.7667 28.5212 63.3388 32.9491 63.3388 38.4097C63.339 43.8704 67.7667 48.2952 73.226 48.2952Z" fill="#D1D5DB"/>
<path d="M85.887 57.8234C85.4464 55.1759 83.2579 51.4705 81.6014 49.8152C81.3832 49.5958 80.408 49.5451 80.1446 49.7083C78.1307 50.947 75.765 51.6759 73.226 51.6759C70.6898 51.6759 68.324 50.947 66.3099 49.7083C66.0453 49.5451 65.0714 49.5958 64.8532 49.8152C64.3901 50.2783 63.8849 50.8947 63.3922 51.6096C64.7251 54.119 65.7821 56.7847 66.1636 59.0802C66.5448 61.3813 66.4211 63.5599 65.8044 65.546C67.9944 66.3383 70.6206 66.686 73.2258 66.686C80.021 66.686 86.9749 64.3299 85.887 57.8234Z" fill="#D1D5DB"/>
<path d="M42.7459 44.1239C51.5956 44.1239 58.7706 36.9489 58.7706 28.0993C58.7706 19.2524 51.5956 12.0775 42.7459 12.0775C33.8976 12.0775 26.7253 19.2524 26.7253 28.0993C26.7253 36.9489 33.8974 44.1239 42.7459 44.1239Z" fill="#D1D5DB"/>
<path d="M56.3147 46.5782C55.967 46.232 54.3879 46.1435 53.9586 46.4092C50.692 48.4192 46.8584 49.5958 42.7459 49.5958C38.6363 49.5958 34.8009 48.4192 31.536 46.4092C31.1068 46.1434 29.5277 46.232 29.18 46.5782C26.489 49.2664 22.9423 55.276 22.2288 59.5602C20.4695 70.113 31.7416 73.9229 42.7459 73.9229C53.7532 73.9229 65.0251 70.113 63.2658 59.5602C62.5522 55.276 59.0056 49.2664 56.3147 46.5782Z" fill="#D1D5DB"/>
<path d="M12.7738 48.2952C18.2332 48.2952 22.6608 43.8704 22.6608 38.4097C22.6608 32.9491 18.2332 28.5212 12.7738 28.5212C7.313 28.5212 2.88535 32.9491 2.88535 38.4097C2.88535 43.8704 7.313 48.2952 12.7738 48.2952Z" fill="#D1D5DB"/>
<path d="M19.3322 59.0802C19.7377 56.6693 20.8817 53.8306 22.316 51.2058C21.9162 50.6597 21.5166 50.184 21.1478 49.8152C20.9296 49.5958 19.9557 49.5451 19.6911 49.7083C17.677 50.947 15.3112 51.6759 12.7738 51.6759C10.2362 51.6759 7.86882 50.947 5.85639 49.7083C5.59301 49.5451 4.61644 49.5958 4.39825 49.8152C2.73754 51.4703 0.554789 55.1759 0.112695 57.8234C-0.973726 64.3299 5.97884 66.6858 12.7738 66.6858C15.1988 66.6858 17.6476 66.3873 19.7377 65.7049C19.0791 63.6783 18.9396 61.4489 19.3322 59.0802Z" fill="#D1D5DB"/>
</g>
<defs>
<clipPath id="clip0_19_74">
<rect width="86" height="86" fill="white"/>
</clipPath>
</defs>
</svg>
