<svg width="86" height="86" viewBox="0 0 86 86" fill="none" xmlns="http://www.w3.org/2000/svg">
<path d="M69.2199 58.7807C67.1178 56.6768 64.6615 54.9597 61.9637 53.708C65.7682 50.6258 68.1953 45.9227 68.1953 40.6485C68.1953 31.343 60.4352 23.7088 51.1297 23.8516C41.967 23.9944 34.5848 31.4606 34.5848 40.6485C34.5848 45.9227 37.0203 50.6258 40.8164 53.708C38.118 54.9588 35.6616 56.676 33.5602 58.7807C28.9746 63.3746 26.3711 69.4383 26.2031 75.9051C26.2009 75.9947 26.2166 76.0839 26.2494 76.1674C26.2821 76.2508 26.3313 76.3269 26.3939 76.3911C26.4565 76.4553 26.5313 76.5063 26.6139 76.5411C26.6966 76.5759 26.7853 76.5938 26.875 76.5938H31.5781C31.9393 76.5938 32.2416 76.3082 32.25 75.9471C32.4096 71.076 34.3832 66.5156 37.8518 63.0555C39.6267 61.2711 41.7379 59.8565 44.0632 58.8935C46.3885 57.9305 48.8816 57.4383 51.3984 57.4453C56.5131 57.4453 61.3254 59.4358 64.9451 63.0555C68.4053 66.5156 70.3789 71.076 70.5469 75.9471C70.5553 76.3082 70.8576 76.5938 71.2187 76.5938H75.9219C76.0115 76.5938 76.1003 76.5759 76.1829 76.5411C76.2656 76.5063 76.3404 76.4553 76.403 76.3911C76.4656 76.3269 76.5147 76.2508 76.5475 76.1674C76.5803 76.0839 76.596 75.9947 76.5938 75.9051C76.4258 69.4383 73.8223 63.3746 69.2199 58.7807ZM51.3984 51.3985C48.5262 51.3985 45.8219 50.2815 43.7978 48.249C42.7821 47.2413 41.9797 46.0392 41.4386 44.7146C40.8975 43.39 40.6288 41.97 40.6484 40.5393C40.6736 37.7846 41.7738 35.1223 43.6971 33.1487C45.7127 31.0826 48.4086 29.932 51.2893 29.8985C54.1363 29.8733 56.8994 30.9819 58.9318 32.9723C61.0146 35.0131 62.1568 37.7426 62.1568 40.6485C62.1568 43.5207 61.0398 46.2166 59.0074 48.249C58.0103 49.2509 56.8244 50.0452 55.5183 50.5857C54.2123 51.1263 52.812 51.4026 51.3984 51.3985ZM30.3603 42.8656C30.2848 42.135 30.2428 41.3959 30.2428 40.6485C30.2428 39.3131 30.3687 38.0113 30.6039 36.7432C30.6627 36.4408 30.5031 36.1301 30.226 36.0041C29.0838 35.4918 28.034 34.7863 27.1269 33.8961C26.0582 32.8598 25.2171 31.6121 24.6575 30.2326C24.0979 28.8531 23.832 27.372 23.8768 25.884C23.9523 23.1881 25.0357 20.6266 26.9254 18.6949C28.9998 16.5701 31.7881 15.4111 34.7527 15.4447C37.4318 15.4699 40.0186 16.5029 41.9754 18.3338C42.6389 18.9553 43.21 19.644 43.6887 20.383C43.8566 20.6434 44.1842 20.7526 44.4697 20.6518C45.9478 20.1395 47.51 19.7783 49.1141 19.6104C49.5844 19.56 49.8531 19.0561 49.6432 18.6361C46.9137 13.236 41.3371 9.50705 34.8871 9.40627C25.5732 9.26349 17.8131 16.8977 17.8131 26.1947C17.8131 31.469 20.2402 36.1721 24.0447 39.2543C21.374 40.4889 18.9133 42.1938 16.7801 44.327C12.1777 48.9209 9.57422 54.9846 9.40625 61.4598C9.404 61.5494 9.41973 61.6386 9.45249 61.7221C9.48525 61.8055 9.53438 61.8816 9.597 61.9458C9.65961 62.0099 9.73444 62.0609 9.81707 62.0958C9.8997 62.1306 9.98846 62.1485 10.0781 62.1485H14.7896C15.1508 62.1485 15.4531 61.8629 15.4615 61.5018C15.6211 56.6307 17.5947 52.0703 21.0633 48.6102C23.5324 46.141 26.5559 44.4277 29.8564 43.5963C30.184 43.5123 30.4023 43.2016 30.3603 42.8656Z" fill="#D1D5DB"/>
</svg>
